<svg width="1177" height="413" viewBox="0 0 1177 413" fill="none" xmlns="http://www.w3.org/2000/svg">
<g clip-path="url(#clip0_455_1031)">
<rect width="1177" height="413" rx="32" fill="#FFD400"/>
<path d="M914.51 77.0844H851.928C833.743 77.0844 819 62.3467 819 44.1611V-5H869.478C894.346 -5 914.51 15.1588 914.51 40.0317V77.0844Z" fill="white" fill-opacity="0.1"/>
<path d="M1132.17 154.892H1069.59C1051.4 154.892 1036.66 140.154 1036.66 121.969V72.8075H1087.14C1112 72.8075 1132.17 92.9662 1132.17 117.839V154.892Z" fill="white" fill-opacity="0.1"/>
<path d="M1023.85 118.277H961.266C943.08 118.277 928.337 103.539 928.337 85.3532V36.1921H978.816C1003.68 36.1921 1023.85 56.3509 1023.85 81.2239V118.277Z" fill="white" fill-opacity="0.1"/>
<path d="M1241.5 196.084H1178.92C1160.74 196.084 1145.99 181.347 1145.99 163.161V114H1196.47C1221.34 114 1241.5 134.159 1241.5 159.032V196.084Z" fill="white" fill-opacity="0.1"/>
<path d="M947.057 265.246H884.475C866.29 265.246 851.547 250.509 851.547 232.323V183.162H902.025C926.893 183.162 947.057 203.321 947.057 228.194V265.246Z" fill="white" fill-opacity="0.1"/>
<path d="M1164.71 343.054H1102.13C1083.95 343.054 1069.2 328.316 1069.2 310.13V260.969H1119.68C1144.55 260.969 1164.71 281.128 1164.71 306.001V343.054Z" fill="white" fill-opacity="0.1"/>
<path d="M1056.39 306.438H993.813C975.627 306.438 960.884 291.701 960.884 273.515V224.354H1011.36C1036.23 224.354 1056.39 244.513 1056.39 269.386V306.438Z" fill="white" fill-opacity="0.1"/>
<path d="M928.241 171.165H865.659C847.473 171.165 832.731 156.428 832.731 138.242V89.0809H883.209C908.077 89.0809 928.241 109.24 928.241 134.113V171.165Z" fill="white" fill-opacity="0.1"/>
<path d="M1145.9 248.973H1083.32C1065.13 248.973 1050.39 234.235 1050.39 216.05V166.888H1100.87C1125.73 166.888 1145.9 187.047 1145.9 211.92V248.973Z" fill="white" fill-opacity="0.1"/>
<path d="M1037.58 212.357H974.996C956.811 212.357 942.068 197.62 942.068 179.434V130.273H992.546C1017.41 130.273 1037.58 150.432 1037.58 175.305V212.357Z" fill="white" fill-opacity="0.1"/>
<path d="M1255.24 290.165H1192.65C1174.47 290.165 1159.73 275.428 1159.73 257.242V208.081H1210.2C1235.07 208.081 1255.24 228.24 1255.24 253.113V290.165Z" fill="white" fill-opacity="0.1"/>
<path d="M960.788 359.327H898.206C880.02 359.327 865.278 344.59 865.278 326.404V277.243H915.756C940.624 277.243 960.788 297.402 960.788 322.275V359.327Z" fill="white" fill-opacity="0.1"/>
<path d="M1178.45 437.135H1115.86C1097.68 437.135 1082.94 422.397 1082.94 404.211V355.05H1133.41C1158.28 355.05 1178.45 375.209 1178.45 400.082V437.135Z" fill="white" fill-opacity="0.1"/>
<path d="M1070.12 400.519H1007.54C989.358 400.519 974.615 385.782 974.615 367.596V318.435H1025.09C1049.96 318.435 1070.12 338.594 1070.12 363.467V400.519Z" fill="white" fill-opacity="0.1"/>
<path d="M142.167 154.892H79.5858C61.4002 154.892 46.6575 140.154 46.6575 121.969V72.8075H97.1357C122.004 72.8075 142.167 92.9662 142.167 117.839V154.892Z" fill="white" fill-opacity="0.1"/>
<path d="M33.8474 118.277H-28.7343C-46.9199 118.277 -61.6626 103.539 -61.6626 85.3532V36.1921H-11.1843C13.6835 36.1921 33.8474 56.3509 33.8474 81.2239V118.277Z" fill="white" fill-opacity="0.1"/>
<path d="M251.505 196.084H188.923C170.738 196.084 155.995 181.347 155.995 163.161V114H206.473C231.341 114 251.505 134.159 251.505 159.032V196.084Z" fill="white" fill-opacity="0.1"/>
<path d="M174.715 343.054H112.133C93.9473 343.054 79.2046 328.316 79.2046 310.13V260.969H129.683C154.551 260.969 174.715 281.128 174.715 306.001V343.054Z" fill="white" fill-opacity="0.1"/>
<path d="M66.3942 306.438H3.81261C-14.373 306.438 -29.1157 291.701 -29.1157 273.515V224.354H21.3625C46.2304 224.354 66.3942 244.513 66.3942 269.386V306.438Z" fill="white" fill-opacity="0.1"/>
<path d="M284.052 384.246H221.47C203.284 384.246 188.542 369.508 188.542 351.322V302.161H239.02C263.888 302.161 284.052 322.32 284.052 347.193V384.246Z" fill="white" fill-opacity="0.1"/>
<path d="M155.898 248.973H93.3165C75.1309 248.973 60.3882 234.235 60.3882 216.05V166.888H110.866C135.734 166.888 155.898 187.047 155.898 211.92V248.973Z" fill="white" fill-opacity="0.1"/>
<path d="M47.5781 212.357H-15.0036C-33.1891 212.357 -47.9319 197.62 -47.9319 179.434V130.273H2.54636C27.4142 130.273 47.5781 150.432 47.5781 175.305V212.357Z" fill="white" fill-opacity="0.1"/>
<path d="M265.236 290.165H202.654C184.468 290.165 169.726 275.428 169.726 257.242V208.081H220.204C245.072 208.081 265.236 228.24 265.236 253.113V290.165Z" fill="white" fill-opacity="0.1"/>
<path d="M188.445 437.135H125.864C107.678 437.135 92.9353 422.397 92.9353 404.211V355.05H143.414C168.281 355.05 188.445 375.209 188.445 400.082V437.135Z" fill="white" fill-opacity="0.1"/>
<path d="M80.125 400.519H17.5433C-0.642269 400.519 -15.385 385.782 -15.385 367.596V318.435H35.0932C59.9611 318.435 80.125 338.594 80.125 363.467V400.519Z" fill="white" fill-opacity="0.1"/>
<path d="M297.783 478.327H235.201C217.015 478.327 202.273 463.589 202.273 445.404V396.243H252.751C277.619 396.243 297.783 416.401 297.783 441.274V478.327Z" fill="white" fill-opacity="0.1"/>
</g>
<defs>
<clipPath id="clip0_455_1031">
<rect width="1177" height="413" rx="32" fill="white"/>
</clipPath>
</defs>
</svg>
