<svg width="65" height="64" viewBox="0 0 65 64" fill="none" xmlns="http://www.w3.org/2000/svg">
<circle cx="32.5" cy="32" r="32" fill="#FFEE99"/>
<g clip-path="url(#clip0_196_920)">
<path d="M32.5 39C30.8333 39 29.5 38.3373 28.5 37.012C27.5 35.6867 27 34.016 27 32C27 29.9833 27.5 28.3123 28.5 26.987C29.5 25.6617 30.8333 24.9993 32.5 25C34.1667 25 35.5 25.6627 36.5 26.988C37.5 28.3133 38 29.984 38 32C38 34.0167 37.5 35.6877 36.5 37.013C35.5 38.3383 34.1667 39.0007 32.5 39ZM32.5 36.95C33.6 36.95 34.425 36.45 34.975 35.45C35.525 34.45 35.8 33.3 35.8 32C35.8 30.7 35.525 29.55 34.975 28.55C34.425 27.55 33.6 27.05 32.5 27.05C31.4 27.05 30.575 27.55 30.025 28.55C29.475 29.55 29.2 30.7 29.2 32C29.2 33.3 29.475 34.45 30.025 35.45C30.575 36.45 31.4 36.95 32.5 36.95Z" fill="black" fill-opacity="0.5"/>
</g>
<defs>
<clipPath id="clip0_196_920">
<rect width="24" height="24" fill="white" transform="translate(20.5 20)"/>
</clipPath>
</defs>
</svg>
