<svg width="33" height="33" viewBox="0 0 33 33" fill="none" xmlns="http://www.w3.org/2000/svg">
<g clip-path="url(#clip0_649_1570)">
<path d="M25 0.5H8C3.85786 0.5 0.5 3.85786 0.5 8V25C0.5 29.1421 3.85786 32.5 8 32.5H25C29.1421 32.5 32.5 29.1421 32.5 25V8C32.5 3.85786 29.1421 0.5 25 0.5Z" fill="white"/>
<path d="M25 0.5H8C3.85786 0.5 0.5 3.85786 0.5 8V25C0.5 29.1421 3.85786 32.5 8 32.5H25C29.1421 32.5 32.5 29.1421 32.5 25V8C32.5 3.85786 29.1421 0.5 25 0.5Z" fill="#0A66C2"/>
<path d="M23.5894 27.7106H27.2481C27.3807 27.7106 27.5079 27.658 27.6016 27.5642C27.6954 27.4705 27.7481 27.3433 27.7481 27.2108L27.75 19.4805C27.75 15.4401 26.8794 12.3345 22.1577 12.3345C20.3629 12.2678 18.6702 13.193 17.7569 14.738C17.7524 14.7455 17.7456 14.7513 17.7375 14.7546C17.7294 14.7579 17.7205 14.7584 17.7121 14.7562C17.7036 14.7539 17.6962 14.7489 17.6908 14.742C17.6855 14.7351 17.6826 14.7266 17.6825 14.7179V13.2075C17.6825 13.0749 17.6298 12.9477 17.5361 12.8539C17.4423 12.7602 17.3151 12.7075 17.1825 12.7075H13.7104C13.5778 12.7075 13.4506 12.7602 13.3568 12.8539C13.2631 12.9477 13.2104 13.0749 13.2104 13.2075V27.21C13.2104 27.3426 13.2631 27.4698 13.3568 27.5636C13.4506 27.6573 13.5778 27.71 13.7104 27.71H17.3689C17.5015 27.71 17.6287 27.6573 17.7224 27.5636C17.8162 27.4698 17.8689 27.3426 17.8689 27.21V20.2884C17.8689 18.3313 18.2401 16.4359 20.6665 16.4359C23.0584 16.4359 23.0894 18.6754 23.0894 20.4151V27.2106C23.0894 27.3432 23.1421 27.4704 23.2358 27.5642C23.3296 27.6579 23.4568 27.7106 23.5894 27.7106ZM5.25 7.95337C5.25 9.4365 6.47088 10.6567 7.954 10.6567C9.43675 10.6566 10.6569 9.43563 10.6569 7.95288C10.6566 6.47013 9.43637 5.25 7.9535 5.25C6.47025 5.25 5.25 6.47037 5.25 7.95337ZM6.11987 27.7106H9.78325C9.91586 27.7106 10.043 27.6579 10.1368 27.5642C10.2306 27.4704 10.2832 27.3432 10.2832 27.2106V13.2075C10.2832 13.0749 10.2306 12.9477 10.1368 12.8539C10.043 12.7602 9.91586 12.7075 9.78325 12.7075H6.11987C5.98727 12.7075 5.86009 12.7602 5.76632 12.8539C5.67255 12.9477 5.61987 13.0749 5.61987 13.2075V27.2106C5.61987 27.3432 5.67255 27.4704 5.76632 27.5642C5.86009 27.6579 5.98727 27.7106 6.11987 27.7106Z" fill="white"/>
</g>
<defs>
<clipPath id="clip0_649_1570">
<rect width="32" height="32" fill="white" transform="translate(0.5 0.5)"/>
</clipPath>
</defs>
</svg>
