<svg width="21" height="20" viewBox="0 0 21 20" fill="none" xmlns="http://www.w3.org/2000/svg">
<path d="M8.72805 1.84451C9.15462 -0.0439453 11.8454 -0.0439448 12.272 1.84451C12.5484 3.06842 13.9529 3.65018 15.0138 2.98024C16.6508 1.94653 18.5535 3.84919 17.5198 5.48616C16.8498 6.54708 17.4316 7.95158 18.6555 8.22805C20.5439 8.65462 20.5439 11.3454 18.6555 11.772C17.4316 12.0484 16.8498 13.4529 17.5198 14.5138C18.5535 16.1508 16.6508 18.0535 15.0138 17.0198C13.9529 16.3498 12.5484 16.9316 12.272 18.1555C11.8454 20.0439 9.15462 20.0439 8.72805 18.1555C8.45158 16.9316 7.04708 16.3498 5.98616 17.0198C4.34919 18.0535 2.44653 16.1508 3.48024 14.5138C4.15018 13.4529 3.56842 12.0484 2.34451 11.772C0.456055 11.3454 0.456055 8.65462 2.34451 8.22805C3.56842 7.95158 4.15018 6.54708 3.48024 5.48616C2.44653 3.84919 4.34919 1.94653 5.98616 2.98024C7.04708 3.65018 8.45158 3.06842 8.72805 1.84451Z" fill="#FFD400"/>
</svg>
