<svg width="33" height="27" viewBox="0 0 33 27" fill="none" xmlns="http://www.w3.org/2000/svg">
<path d="M29.224 6.97197C29.2435 7.25422 29.2435 7.53622 29.2435 7.82097C29.2435 16.496 22.6393 26.501 10.5635 26.501V26.496C6.99602 26.501 3.50248 25.4791 0.5 23.5525C1.01875 23.615 1.54 23.6462 2.0625 23.6475C5.01928 23.6498 7.89101 22.6581 10.2163 20.8317C8.84624 20.8058 7.51857 20.3525 6.41886 19.535C5.31915 18.7176 4.50238 17.5769 4.08275 16.2725C5.067 16.4625 6.081 16.4232 7.047 16.1592C3.984 15.5405 1.7805 12.8495 1.7805 9.72422V9.64097C2.69358 10.1496 3.71551 10.4315 4.76025 10.4627C1.875 8.53473 0.98625 4.69697 2.72825 1.69672C4.37647 3.72489 6.4329 5.38366 8.76396 6.5653C11.095 7.74693 13.6486 8.42501 16.2587 8.55547C15.9986 7.43517 16.0371 6.26619 16.3704 5.16543C16.7038 4.06467 17.3203 3.07072 18.1583 2.28297C20.8025 -0.202776 24.9613 -0.0752754 27.4468 2.56772C28.9171 2.27741 30.327 1.73834 31.616 0.973725C31.1259 2.4939 30.1003 3.78431 28.73 4.60497C30.0314 4.45153 31.3023 4.10304 32.5 3.57122C31.619 4.89063 30.5096 6.04226 29.224 6.97197Z" fill="#1D9BF0"/>
</svg>
