<svg width="11" height="14" viewBox="0 0 11 14" fill="none" xmlns="http://www.w3.org/2000/svg">
<path d="M5.5 14C3.83333 14 2.5 13.3373 1.5 12.012C0.5 10.6867 0 9.016 0 7C0 4.98333 0.5 3.31233 1.5 1.987C2.5 0.661667 3.83333 -0.000666164 5.5 5.02765e-07C7.16667 5.02765e-07 8.5 0.662667 9.5 1.988C10.5 3.31333 11 4.984 11 7C11 9.01667 10.5 10.6877 9.5 12.013C8.5 13.3383 7.16667 14.0007 5.5 14ZM5.5 11.95C6.6 11.95 7.425 11.45 7.975 10.45C8.525 9.45 8.8 8.3 8.8 7C8.8 5.7 8.525 4.55 7.975 3.55C7.425 2.55 6.6 2.05 5.5 2.05C4.4 2.05 3.575 2.55 3.025 3.55C2.475 4.55 2.2 5.7 2.2 7C2.2 8.3 2.475 9.45 3.025 10.45C3.575 11.45 4.4 11.95 5.5 11.95Z" fill="black" fill-opacity="0.5"/>
</svg>
