<svg width="30" height="20" viewBox="0 0 30 20" fill="none" xmlns="http://www.w3.org/2000/svg">
<path d="M14.6668 2.66667C17.1184 2.65852 19.5226 3.34238 21.6029 4.63964C23.6833 5.93689 25.3553 7.79488 26.4268 10C24.2268 14.4933 19.7335 17.3333 14.6668 17.3333C9.60012 17.3333 5.10679 14.4933 2.90679 10C3.97828 7.79488 5.6503 5.93689 7.73063 4.63964C9.81096 3.34238 12.2151 2.65852 14.6668 2.66667ZM14.6668 0C8.00012 0 2.30679 4.14667 0.00012207 10C2.30679 15.8533 8.00012 20 14.6668 20C21.3335 20 27.0268 15.8533 29.3335 10C27.0268 4.14667 21.3335 0 14.6668 0ZM14.6668 6.66667C15.5508 6.66667 16.3987 7.01786 17.0238 7.64298C17.6489 8.2681 18.0001 9.11594 18.0001 10C18.0001 10.8841 17.6489 11.7319 17.0238 12.357C16.3987 12.9821 15.5508 13.3333 14.6668 13.3333C13.7827 13.3333 12.9349 12.9821 12.3098 12.357C11.6846 11.7319 11.3335 10.8841 11.3335 10C11.3335 9.11594 11.6846 8.2681 12.3098 7.64298C12.9349 7.01786 13.7827 6.66667 14.6668 6.66667ZM14.6668 4C11.3601 4 8.66679 6.69333 8.66679 10C8.66679 13.3067 11.3601 16 14.6668 16C17.9735 16 20.6668 13.3067 20.6668 10C20.6668 6.69333 17.9735 4 14.6668 4Z" fill="white"/>
</svg>
