<svg width="33" height="33" viewBox="0 0 33 33" fill="none" xmlns="http://www.w3.org/2000/svg">
<g clip-path="url(#clip0_649_1580)">
<path d="M1.18295 16.3085C1.1822 18.9971 1.8902 21.6224 3.23645 23.9363L1.0542 31.8423L9.2082 29.7208C11.4635 30.9391 13.9904 31.5774 16.5582 31.5776H16.5649C25.0418 31.5776 31.9422 24.7332 31.9458 16.3205C31.9474 12.244 30.3489 8.4107 27.4447 5.52673C24.541 2.64301 20.6791 1.05405 16.5643 1.05219C8.08645 1.05219 1.18657 7.89622 1.18307 16.3085" fill="url(#paint0_linear_649_1580)"/>
<path d="M0.63375 16.3035C0.632875 19.0889 1.36625 21.808 2.7605 24.2048L0.5 32.3942L8.94637 30.1967C11.2736 31.4558 13.8939 32.1196 16.5601 32.1206H16.567C25.348 32.1206 32.4963 25.03 32.5 16.3162C32.5015 12.0932 30.8455 8.12208 27.8375 5.13479C24.8291 2.14788 20.8291 0.501736 16.567 0.5C7.7845 0.5 0.63725 7.58961 0.63375 16.3035ZM5.66375 23.792L5.34837 23.2953C4.02262 21.2036 3.32288 18.7865 3.32387 16.3045C3.32675 9.06174 9.26725 3.16915 16.572 3.16915C20.1095 3.17064 23.434 4.53895 25.9345 7.02155C28.4349 9.5044 29.8108 12.8049 29.8099 16.3152C29.8066 23.558 23.866 29.4513 16.567 29.4513H16.5618C14.1851 29.4501 11.8542 28.8168 9.8215 27.62L9.33775 27.3354L4.3255 28.6393L5.66375 23.7919V23.792Z" fill="url(#paint1_linear_649_1580)"/>
<path d="M12.5849 9.69668C12.2867 9.03894 11.9728 9.02567 11.6892 9.01413C11.4569 9.00421 11.1914 9.00496 10.9262 9.00496C10.6607 9.00496 10.2293 9.10406 9.86469 9.4991C9.49969 9.89451 8.47119 10.85 8.47119 12.7935C8.47119 14.737 9.89782 16.6153 10.0967 16.8791C10.2958 17.1424 12.8508 21.2582 16.8973 22.8416C20.2603 24.1575 20.9447 23.8957 21.6746 23.8298C22.4046 23.764 24.0301 22.8745 24.3617 21.9521C24.6936 21.0298 24.6936 20.2392 24.5941 20.074C24.4946 19.9094 24.2291 19.8105 23.8309 19.6131C23.4327 19.4155 21.4754 18.4598 21.1106 18.328C20.7456 18.1963 20.4802 18.1305 20.2147 18.5261C19.9492 18.921 19.1868 19.8105 18.9544 20.074C18.7223 20.338 18.4899 20.3709 18.0919 20.1733C17.6936 19.9751 16.4114 19.5585 14.8903 18.2129C13.7068 17.1658 12.9078 15.8728 12.6756 15.4773C12.4433 15.0824 12.6507 14.8683 12.8503 14.6714C13.0292 14.4944 13.2486 14.2102 13.4478 13.9796C13.6463 13.7489 13.7126 13.5843 13.8453 13.3209C13.9782 13.0572 13.9117 12.8265 13.8123 12.6289C13.7126 12.4313 12.9389 10.4777 12.5849 9.69668Z" fill="white"/>
</g>
<defs>
<linearGradient id="paint0_linear_649_1580" x1="1545.64" y1="3080.06" x2="1545.64" y2="1.05219" gradientUnits="userSpaceOnUse">
<stop stop-color="#1FAF38"/>
<stop offset="1" stop-color="#60D669"/>
</linearGradient>
<linearGradient id="paint1_linear_649_1580" x1="1600.5" y1="3189.92" x2="1600.5" y2="0.5" gradientUnits="userSpaceOnUse">
<stop stop-color="#F9F9F9"/>
<stop offset="1" stop-color="white"/>
</linearGradient>
<clipPath id="clip0_649_1580">
<rect width="32" height="32" fill="white" transform="translate(0.5 0.5)"/>
</clipPath>
</defs>
</svg>
