<svg width="28" height="34" viewBox="0 0 28 34" fill="none" xmlns="http://www.w3.org/2000/svg">
<path d="M19.3311 6.53436H17.6671M21.0993 5.84677L22.0265 5.30359V7.76513M2.64103 33H24.7949C25.2301 33 25.6475 32.8271 25.9553 32.5194C26.263 32.2116 26.4359 31.7942 26.4359 31.359V2.64103C26.4359 2.2058 26.263 1.7884 25.9553 1.48065C25.6475 1.17289 25.2301 1 24.7949 1H2.64103C2.2058 1 1.7884 1.17289 1.48065 1.48065C1.17289 1.7884 1 2.2058 1 2.64103V31.359C1 31.7942 1.17289 32.2116 1.48065 32.5194C1.7884 32.8271 2.2058 33 2.64103 33ZM3.48862 3.84144H23.9481V9.23631H3.48862V3.84144ZM8.41251 12.0777V16.4084H3.48944V12.0777H8.41251ZM8.41169 18.9102V23.2408H3.48862V18.9102H8.41169ZM8.41169 25.7442V30.0749H3.48862V25.7442H8.41169ZM16.1803 12.0777V16.4084H11.2572V12.0777H16.1803ZM16.1795 18.9102V23.2408H11.2564V18.9102H16.1795ZM16.1795 25.7442V30.0749H11.2564V25.7442H16.1795ZM23.9481 12.0777V16.4084H19.025V12.0777H23.9481ZM23.9473 18.9102V23.2408H19.0242V18.9102H23.9473ZM23.9473 25.7442V30.0749H19.0242V25.7442H23.9473Z" stroke="white" stroke-width="2" stroke-linecap="round" stroke-linejoin="round"/>
</svg>
