<svg width="80" height="80" viewBox="0 0 80 80" fill="none" xmlns="http://www.w3.org/2000/svg">
<circle cx="40" cy="40" r="40" fill="#003AC9"/>
<path d="M39.6667 34.6667C42.1183 34.6585 44.5225 35.3424 46.6028 36.6396C48.6832 37.9369 50.3552 39.7949 51.4267 42C49.2267 46.4933 44.7333 49.3333 39.6667 49.3333C34.6 49.3333 30.1067 46.4933 27.9067 42C28.9782 39.7949 30.6502 37.9369 32.7305 36.6396C34.8108 35.3424 37.215 34.6585 39.6667 34.6667ZM39.6667 32C33 32 27.3067 36.1467 25 42C27.3067 47.8533 33 52 39.6667 52C46.3333 52 52.0267 47.8533 54.3333 42C52.0267 36.1467 46.3333 32 39.6667 32ZM39.6667 38.6667C40.5507 38.6667 41.3986 39.0179 42.0237 39.643C42.6488 40.2681 43 41.1159 43 42C43 42.8841 42.6488 43.7319 42.0237 44.357C41.3986 44.9821 40.5507 45.3333 39.6667 45.3333C38.7826 45.3333 37.9348 44.9821 37.3096 44.357C36.6845 43.7319 36.3333 42.8841 36.3333 42C36.3333 41.1159 36.6845 40.2681 37.3096 39.643C37.9348 39.0179 38.7826 38.6667 39.6667 38.6667ZM39.6667 36C36.36 36 33.6667 38.6933 33.6667 42C33.6667 45.3067 36.36 48 39.6667 48C42.9733 48 45.6667 45.3067 45.6667 42C45.6667 38.6933 42.9733 36 39.6667 36Z" fill="white"/>
</svg>
