<svg width="25" height="24" viewBox="0 0 25 24" fill="none" xmlns="http://www.w3.org/2000/svg">
<path fill-rule="evenodd" clip-rule="evenodd" d="M18.3462 0C14.9474 0 12.1923 2.75508 12.1923 6.15385V11.6923C12.1923 11.8555 12.2571 12.012 12.3726 12.1275C12.488 12.2429 12.6445 12.3077 12.8077 12.3077H18.3462C21.7449 12.3077 24.5 9.55262 24.5 6.15385C24.5 2.75508 21.7449 0 18.3462 0ZM13.4231 6.15385C13.4231 5.18015 13.7118 4.22833 14.2528 3.41873C14.7937 2.60914 15.5626 1.97813 16.4622 1.60552C17.3617 1.2329 18.3516 1.13541 19.3066 1.32536C20.2616 1.51532 21.1388 1.9842 21.8273 2.6727C22.5158 3.36121 22.9847 4.23842 23.1746 5.1934C23.3646 6.14839 23.2671 7.13825 22.8945 8.03783C22.5219 8.9374 21.8909 9.70628 21.0813 10.2472C20.2717 10.7882 19.3198 11.0769 18.3462 11.0769H13.4231V6.15385ZM1.73077 4.78646C1.73077 4.52431 1.94738 4.30769 2.20954 4.30769H6.03846C6.3 4.30769 6.51723 4.52431 6.51723 4.78646C6.51723 6.21785 6.74615 7.59385 7.16954 8.88C7.19693 8.96528 7.20004 9.05651 7.17852 9.14346C7.157 9.23041 7.1117 9.30965 7.04769 9.37231L4.32462 12.0954L4.52769 12.4935C6.16215 15.7071 8.79477 18.3274 12.0046 19.9717L12.4034 20.176L15.1271 17.4523C15.1888 17.3905 15.2665 17.3471 15.3514 17.3268C15.4364 17.3064 15.5253 17.3101 15.6083 17.3372L15.6145 17.3391C16.9373 17.7739 18.3211 17.9949 19.7135 17.9938C19.9757 17.9938 20.1923 18.2105 20.1923 18.4726V22.2905C20.1915 22.4172 20.1408 22.5385 20.0512 22.6281C19.9616 22.7177 19.8403 22.7684 19.7135 22.7692C9.78123 22.7692 1.73077 14.7194 1.73077 4.78646ZM2.20954 3.07692C1.75639 3.07774 1.32204 3.25811 1.00161 3.57853C0.681186 3.89896 0.500813 4.33331 0.5 4.78646C0.5 15.3988 9.10123 24 19.7135 24C20.1667 23.9992 20.601 23.8188 20.9215 23.4984C21.2419 23.178 21.4223 22.7436 21.4231 22.2905V18.4726C21.4223 18.0195 21.2419 17.5851 20.9215 17.2647C20.601 16.9443 20.1667 16.7639 19.7135 16.7631C18.4535 16.7642 17.2013 16.5646 16.004 16.1717C15.7034 16.0707 15.3807 16.0557 15.072 16.1282C14.7634 16.2007 14.4811 16.3579 14.2569 16.5822L12.1714 18.6677C9.49608 17.2038 7.29608 15.0043 5.83169 12.3292L7.91785 10.2431C8.14152 10.0209 8.29957 9.74139 8.3746 9.43521C8.44963 9.12902 8.43872 8.80808 8.34308 8.50769L8.34185 8.50339L8.34062 8.49908C7.94617 7.30111 7.7461 6.0477 7.748 4.78646C7.74719 4.33331 7.56681 3.89896 7.24639 3.57853C6.92597 3.25811 6.49161 3.07774 6.03846 3.07692H2.20954ZM15.2692 5.53846H17.7308V3.07692H18.9615V5.53846H21.4231V6.76923H18.9615V9.23077H17.7308V6.76923H15.2692V5.53846Z" fill="black" fill-opacity="0.5"/>
<path d="M19.7135 17.9938V18.2438C19.8376 18.2438 19.9423 18.3485 19.9423 18.4726V22.2896C19.9417 22.3503 19.9174 22.4084 19.8744 22.4513L20.0512 22.6281L19.8744 22.4513C19.8315 22.4943 19.7734 22.5187 19.7127 22.5192C9.91883 22.5188 1.98077 14.581 1.98077 4.78646C1.98077 4.66238 2.08546 4.55769 2.20954 4.55769H6.03846C6.16214 4.55769 6.26723 4.66259 6.26723 4.78646C6.26723 6.24427 6.50034 7.64629 6.93174 8.95714C6.94473 8.99803 6.94616 9.04173 6.93584 9.08339C6.92548 9.12529 6.90365 9.16347 6.87281 9.19366L6.8728 9.19365L6.87092 9.19553L4.14784 11.9186L4.01935 12.0471L4.10191 12.209L4.30486 12.6069C4.30488 12.6069 4.3049 12.6069 4.30491 12.607C5.96357 15.868 8.63456 18.5262 11.8906 20.1942C11.8906 20.1942 11.8906 20.1942 11.8906 20.1942L12.2894 20.3985L12.4514 20.4815L12.5802 20.3528L15.3039 17.6291L15.3039 17.629C15.333 17.5999 15.3696 17.5795 15.4096 17.5699C15.4496 17.5603 15.4915 17.562 15.5306 17.5748L15.5305 17.5749L15.5365 17.5767L15.5396 17.5776C16.8867 18.02 18.2958 18.2449 19.7137 18.2438L19.7135 17.9938ZM19.7135 17.9938C18.3211 17.9949 16.9373 17.7739 15.6145 17.3391L20.1923 22.2905V18.4726C20.1923 18.2105 19.9757 17.9938 19.7135 17.9938ZM2.20954 2.82692L2.20909 2.82692C1.68979 2.82786 1.19203 3.03456 0.824834 3.40176C0.457635 3.76896 0.250933 4.26672 0.25 4.78601V4.78646C0.25 15.5368 8.96316 24.25 19.7135 24.25H19.714C20.2333 24.2491 20.731 24.0424 21.0982 23.6752C21.4654 23.308 21.6721 22.8102 21.6731 22.2909V22.2905V18.4726V18.4722C21.6721 17.9529 21.4654 17.4551 21.0982 17.0879C20.731 16.7207 20.2333 16.514 19.714 16.5131H19.7133C18.4801 16.5142 17.2546 16.3188 16.0828 15.9344C15.7384 15.8189 15.3685 15.8017 15.0148 15.8848C14.6609 15.968 14.3372 16.1483 14.0801 16.4054L12.1279 18.3576C9.62263 16.9478 7.55207 14.8777 6.14177 12.3727L8.09401 10.4205C8.09416 10.4203 8.0943 10.4202 8.09445 10.42C8.35053 10.1655 8.53149 9.84537 8.61742 9.49471C8.70308 9.14509 8.69098 8.77869 8.58246 8.43553L8.58222 8.43468L8.58099 8.43038L8.58118 8.43032L8.57807 8.42089C8.19198 7.24827 7.99614 6.02139 7.998 4.78684L7.998 4.78601C7.99707 4.26672 7.79037 3.76896 7.42317 3.40176C7.05597 3.03456 6.55821 2.82786 6.03891 2.82692H6.03846L2.20954 2.82692ZM15.2692 5.28846H15.0192V5.53846V6.76923V7.01923H15.2692H17.4808V9.23077V9.48077H17.7308H18.9615H19.2115V9.23077V7.01923H21.4231H21.6731V6.76923V5.53846V5.28846H21.4231H19.2115V3.07692V2.82692H18.9615H17.7308H17.4808V3.07692V5.28846H15.2692ZM18.3462 -0.25C14.8093 -0.25 11.9423 2.61701 11.9423 6.15385V11.6923C11.9423 11.9218 12.0335 12.1419 12.1958 12.3042C12.3581 12.4665 12.5782 12.5577 12.8077 12.5577H18.3462C21.883 12.5577 24.75 9.69069 24.75 6.15385C24.75 2.61701 21.883 -0.25 18.3462 -0.25ZM13.6731 6.15385C13.6731 5.2296 13.9471 4.32611 14.4606 3.55762C14.9741 2.78914 15.704 2.19018 16.5578 1.83649C17.4117 1.48279 18.3513 1.39025 19.2578 1.57056C20.1643 1.75087 20.997 2.19594 21.6505 2.84948C22.3041 3.50302 22.7491 4.33569 22.9294 5.24217C23.1098 6.14866 23.0172 7.08826 22.6635 7.94216C22.3098 8.79605 21.7109 9.52588 20.9424 10.0394C20.1739 10.5529 19.2704 10.8269 18.3462 10.8269H13.6731V6.15385Z" stroke="black" stroke-opacity="0.5" stroke-width="0.5"/>
</svg>
