<svg width="19" height="22" viewBox="0 0 19 22" fill="none" xmlns="http://www.w3.org/2000/svg">
<path d="M16.4664 9.29443L15.8056 8.84322C16.5788 7.70438 17.0291 6.37734 17.1085 5.00311C17.188 3.62887 16.8937 2.25878 16.2568 1.03842L16.1224 0.793624L16.82 0.400024L16.964 0.667224C17.6687 2.01584 17.9946 3.53022 17.9073 5.04931C17.82 6.56841 17.321 8.03545 16.4664 9.29443ZM18.3112 20.704V21.4H0.711212V20.704H4.69201L7.17041 9.24002C7.20885 9.06107 7.30749 8.90071 7.44987 8.7857C7.59226 8.67068 7.76978 8.60797 7.95281 8.60802H9.11281V6.36322C8.71375 6.27052 8.35751 6.04616 8.10151 5.7263C7.84551 5.40644 7.70464 5.00971 7.70161 4.60002C7.69433 4.35245 7.73681 4.10593 7.82652 3.87506C7.91624 3.6442 8.05137 3.43369 8.22392 3.25599C8.39646 3.0783 8.60291 2.93704 8.83104 2.84057C9.05916 2.74411 9.30433 2.69441 9.55201 2.69441C9.7997 2.69441 10.0449 2.74411 10.273 2.84057C10.5011 2.93704 10.7076 3.0783 10.8801 3.25599C11.0527 3.43369 11.1878 3.6442 11.2775 3.87506C11.3672 4.10593 11.4097 4.35245 11.4024 4.60002C11.3989 5.02287 11.2486 5.43136 10.9771 5.75562C10.7057 6.07987 10.33 6.29974 9.91441 6.37762V8.60962H11.068C11.2511 8.60913 11.4288 8.67144 11.5715 8.78617C11.7142 8.9009 11.8132 9.0611 11.852 9.24002L14.3272 20.704H18.3112ZM11.0264 13.0016H7.99601L7.47921 15.3904H11.5448L11.0264 13.0016ZM7.30481 16.1904L6.78801 18.5824H12.2328L11.716 16.1904H7.30481ZM8.59761 10.2096L8.16561 12.2016H10.8536L10.4232 10.2096H8.59761ZM6.32881 20.7056H12.692L12.4056 19.3824H6.61361L6.32881 20.7056ZM5.83601 7.02082C5.35796 6.29518 5.1053 5.4443 5.10985 4.57535C5.11441 3.7064 5.37598 2.85822 5.86161 2.13762L5.19921 1.68962C4.62475 2.54105 4.3153 3.54353 4.30989 4.57062C4.30448 5.59771 4.60335 6.60339 5.16881 7.46082L5.83601 7.02082ZM14.7112 4.60002C14.7122 3.5844 14.4151 2.59081 13.8568 1.74242L13.188 2.18242C13.6649 2.90805 13.9166 3.75848 13.9115 4.62678C13.9064 5.49508 13.6446 6.34248 13.1592 7.06242L13.8216 7.50722C14.4026 6.6491 14.7125 5.63631 14.7112 4.60002ZM3.15441 8.78883C2.37968 7.61126 1.94664 6.24194 1.90342 4.83304C1.86021 3.42414 2.20851 2.03086 2.90961 0.808024L2.21681 0.408024C1.44156 1.7598 1.05652 3.30015 1.10454 4.85771C1.15256 6.41527 1.63176 7.92898 2.48881 9.23042L3.15441 8.78883Z" fill="black" fill-opacity="0.5"/>
</svg>
