<svg width="80" height="80" viewBox="0 0 80 80" fill="none" xmlns="http://www.w3.org/2000/svg">
<circle cx="40" cy="40" r="40" fill="#003AC9"/>
<path d="M48.5117 29.3496C48.5323 29.3527 48.458 29.3555 48.3047 29.3555C47.1477 29.3555 46.0684 30.6092 46.0684 32.3242C46.0684 33.1886 46.3629 33.9622 46.7949 34.498L47.4335 35.2871L46.4296 35.4415C45.7696 35.5425 45.3257 35.8435 44.953 36.3379C44.5804 36.8322 44.3065 37.5366 44.1249 38.3594C43.8008 39.8276 43.7755 41.6359 43.7733 43.2441H45.6757L45.7128 43.7891L46.1562 50.4512H50.2695L50.7713 43.783L50.8124 43.244H52.8124C52.7974 41.6576 52.7112 39.8732 52.3534 38.4159C52.1526 37.598 51.867 36.8938 51.498 36.3925C51.1289 35.8912 50.7042 35.5894 50.119 35.4804L49.1365 35.2969L49.7792 34.5312C50.2309 33.9923 50.5408 33.2101 50.5408 32.3242C50.5408 30.7154 49.572 29.4863 48.5233 29.3515L48.5115 29.3497L48.5117 29.3496ZM33.2148 29.5605C30.3461 29.5609 26.9746 29.8964 23.1133 30.6796V31.875C39.8644 29.522 44.4598 34.2594 37.2539 36.834C29.921 39.454 24.0975 52.6001 47.2168 53.7461C47.4894 53.7735 47.7699 53.789 48.0565 53.789C49.449 53.789 50.7028 53.4483 51.5643 52.9394C52.426 52.4307 52.8515 51.8057 52.8515 51.1954C52.8515 50.585 52.426 49.9601 51.5644 49.4512C51.55 49.4426 51.5343 49.4342 51.5196 49.4257L51.3946 51.0801L51.3535 51.6211H45.0625L45.0273 51.0742L44.8223 47.9805C36.8102 48.1555 34.6188 41.6986 39.8164 39.8261C41.0905 39.3671 42.1343 38.8364 42.9531 38.2617C42.9637 38.2104 42.9731 38.1583 42.9843 38.1074C43.1882 37.184 43.5003 36.3262 44.0215 35.6347C44.3306 35.2245 44.724 34.8804 45.1915 34.6366C44.9962 31.9774 40.9205 29.5594 33.2148 29.5605H33.2148Z" fill="white"/>
</svg>
