<svg width="30" height="25" viewBox="0 0 30 25" fill="none" xmlns="http://www.w3.org/2000/svg">
<path d="M25.5117 0.349609C25.5323 0.352734 25.458 0.355484 25.3047 0.355484C24.1477 0.355484 23.0684 1.60923 23.0684 3.32423C23.0684 4.18861 23.3629 4.96223 23.7949 5.49798L24.4335 6.28711L23.4296 6.44148C22.7696 6.54255 22.3257 6.84348 21.953 7.33786C21.5804 7.83223 21.3065 8.53661 21.1249 9.35936C20.8008 10.8276 20.7755 12.6359 20.7733 14.2441H22.6757L22.7128 14.7891L23.1562 21.4512H27.2695L27.7713 14.783L27.8124 14.244H29.8124C29.7974 12.6576 29.7112 10.8732 29.3534 9.41592C29.1526 8.59805 28.867 7.8938 28.498 7.39248C28.1289 6.89123 27.7042 6.58936 27.119 6.48042L26.1365 6.29686L26.7792 5.53123C27.2309 4.9923 27.5408 4.21011 27.5408 3.32417C27.5408 1.71542 26.572 0.486297 25.5233 0.351547L25.5115 0.349672L25.5117 0.349609ZM10.2148 0.560547C7.34609 0.560922 3.97459 0.896359 0.113281 1.67961V2.87498C16.8644 0.521984 21.4598 5.25936 14.2539 7.83398C6.92097 10.454 1.09747 23.6001 24.2168 24.7461C24.4894 24.7735 24.7699 24.789 25.0565 24.789C26.449 24.789 27.7028 24.4483 28.5643 23.9394C29.426 23.4307 29.8515 22.8057 29.8515 22.1954C29.8515 21.585 29.426 20.9601 28.5644 20.4512C28.55 20.4426 28.5343 20.4342 28.5196 20.4257L28.3946 22.0801L28.3535 22.6211H22.0625L22.0273 22.0742L21.8223 18.9805C13.8102 19.1555 11.6188 12.6986 16.8164 10.8261C18.0905 10.3671 19.1343 9.83636 19.9531 9.26173C19.9637 9.21036 19.9731 9.1583 19.9843 9.10736C20.1882 8.18398 20.5003 7.32623 21.0215 6.63473C21.3306 6.22455 21.724 5.88036 22.1915 5.63661C21.9962 2.97742 17.9205 0.559359 10.2148 0.560547H10.2148Z" fill="white"/>
</svg>
