<svg width="31" height="24" viewBox="0 0 31 24" fill="none" xmlns="http://www.w3.org/2000/svg">
<path d="M8 18H9.5C9.5 18.425 9.644 18.7815 9.932 19.0695C10.22 19.3575 10.576 19.501 11 19.5C11.425 19.5 11.7815 19.356 12.0695 19.068C12.3575 18.78 12.501 18.424 12.5 18H14C14.425 18 14.7815 17.856 15.0695 17.568C15.3575 17.28 15.501 16.924 15.5 16.5V12C15.5 11.575 15.356 11.2185 15.068 10.9305C14.78 10.6425 14.424 10.499 14 10.5H9.5V9H14.0375C14.4625 9 14.8125 8.856 15.0875 8.568C15.3625 8.28 15.5 7.924 15.5 7.5C15.5 7.075 15.356 6.7185 15.068 6.4305C14.78 6.1425 14.424 5.999 14 6H12.5C12.5 5.575 12.356 5.2185 12.068 4.9305C11.78 4.6425 11.424 4.499 11 4.5C10.575 4.5 10.2185 4.644 9.9305 4.932C9.6425 5.22 9.499 5.576 9.5 6H8C7.575 6 7.2185 6.144 6.9305 6.432C6.6425 6.72 6.499 7.076 6.5 7.5V12C6.5 12.425 6.644 12.7815 6.932 13.0695C7.22 13.3575 7.576 13.501 8 13.5H12.5V15H7.9625C7.5375 15 7.1875 15.144 6.9125 15.432C6.6375 15.72 6.5 16.076 6.5 16.5C6.5 16.925 6.644 17.2815 6.932 17.5695C7.22 17.8575 7.576 18.001 8 18ZM20.975 17.85C21.125 18 21.3 18.075 21.5 18.075C21.7 18.075 21.875 18 22.025 17.85L24.5 15.375H18.5L20.975 17.85ZM18.5 9H24.5L22.025 6.525C21.875 6.375 21.7 6.3 21.5 6.3C21.3 6.3 21.125 6.375 20.975 6.525L18.5 9ZM3.5 24C2.675 24 1.9685 23.706 1.3805 23.118C0.792502 22.53 0.499003 21.824 0.500003 21V3C0.500003 2.175 0.794003 1.4685 1.382 0.880502C1.97 0.292502 2.676 -0.000997453 3.5 2.54669e-06H27.5C28.325 2.54669e-06 29.0315 0.294002 29.6195 0.882002C30.2075 1.47 30.501 2.176 30.5 3V21C30.5 21.825 30.206 22.5315 29.618 23.1195C29.03 23.7075 28.324 24.001 27.5 24H3.5ZM3.5 21H27.5V3H3.5V21Z" fill="black" fill-opacity="0.5"/>
</svg>
